HIERARCHY
ROOT Hips
{
	OFFSET 49.598701 0.118866 51.613800
	CHANNELS 6 Xposition Yposition Zposition Xrotation Yrotation Zrotation
	JOINT spine
	{
		OFFSET 0.000000 -0.477352 8.301041
		CHANNELS 3 Xrotation Yrotation Zrotation
		JOINT spine1
		{
			OFFSET 0.000000 -0.000002 10.456497
			CHANNELS 3 Xrotation Yrotation Zrotation
			JOINT spine2
			{
				OFFSET 0.000000 -0.000002 10.019203
				CHANNELS 3 Xrotation Yrotation Zrotation
				JOINT Neck
				{
					OFFSET 0.000000 -1.226414 25.723503
					CHANNELS 3 Xrotation Yrotation Zrotation
					JOINT Head
					{
						OFFSET 0.000000 -0.000001 7.771751
						CHANNELS 3 Xrotation Yrotation Zrotation
						End Site
						{
							OFFSET 0.000000 6.203937 18.812004
						}
					}
				}
				JOINT RightShoulder
				{
					OFFSET -4.218800 0.587437 10.820000
					CHANNELS 3 Xrotation Yrotation Zrotation
					JOINT RightArm
					{
						OFFSET 0.000000 -0.000002 14.191399
						CHANNELS 3 Xrotation Yrotation Zrotation
						JOINT RightArmRoll
						{
							OFFSET 0.000000 -0.000001 7.164078
							CHANNELS 3 Xrotation Yrotation Zrotation
							JOINT RightForeArm
							{
								OFFSET 0.000000 -0.000003 20.866508
								CHANNELS 3 Xrotation Yrotation Zrotation
								JOINT RightForeArmRoll
								{
									OFFSET 0.000000 -0.000001 8.039215
									CHANNELS 3 Xrotation Yrotation Zrotation
									JOINT RightHand
									{
										OFFSET 0.000000 -0.000003 16.132996
										CHANNELS 3 Xrotation Yrotation Zrotation
										End Site
										{
											OFFSET 0.000000 -0.000000 0.100006
										}
									}
								}
							}
						}
					}
				}
				JOINT LeftShoulder
				{
					OFFSET 4.218800 0.587437 10.820000
					CHANNELS 3 Xrotation Yrotation Zrotation
					JOINT LeftArm
					{
						OFFSET 0.000000 -0.000002 14.191399
						CHANNELS 3 Xrotation Yrotation Zrotation
						JOINT LeftArmRoll
						{
							OFFSET 0.000000 -0.000001 7.164078
							CHANNELS 3 Xrotation Yrotation Zrotation
							JOINT LeftForeArm
							{
								OFFSET 0.000000 -0.000003 20.866508
								CHANNELS 3 Xrotation Yrotation Zrotation
								JOINT LeftForeArmRoll
								{
									OFFSET 0.000000 -0.000001 8.039215
									CHANNELS 3 Xrotation Yrotation Zrotation
									JOINT LeftHand
									{
										OFFSET 0.000000 -0.000003 16.132996
										CHANNELS 3 Xrotation Yrotation Zrotation
										End Site
										{
											OFFSET 0.000000 -0.000000 0.100006
										}
									}
								}
							}
						}
					}
				}
			}
		}
	}
	JOINT RightUpLeg
	{
		OFFSET -7.357731 1.131810 -1.349209
		CHANNELS 3 Xrotation Yrotation Zrotation
		JOINT RightUpLegRoll
		{
			OFFSET 0.000000 -0.000003 18.916798
			CHANNELS 3 Xrotation Yrotation Zrotation
			JOINT RightLeg
			{
				OFFSET 0.000000 0.000004 -23.425598
				CHANNELS 3 Xrotation Yrotation Zrotation
				JOINT RightLegRoll
				{
					OFFSET 0.000000 -0.000004 23.502296
					CHANNELS 3 Xrotation Yrotation Zrotation
					JOINT RightFoot
					{
						OFFSET 0.000000 -0.000003 19.561699
						CHANNELS 3 Xrotation Yrotation Zrotation
						JOINT RightToeBase
						{
							OFFSET 0.000000 -0.000003 16.352600
							CHANNELS 3 Xrotation Yrotation Zrotation
							End Site
							{
								OFFSET 0.006931 0.912836 7.919441
							}
						}
					}
				}
			}
		}
	}
	JOINT LeftUpLeg
	{
		OFFSET 7.357731 1.131810 -1.349209
		CHANNELS 3 Xrotation Yrotation Zrotation
		JOINT LeftUpLegRoll
		{
			OFFSET 0.000000 -0.000003 18.916897
			CHANNELS 3 Xrotation Yrotation Zrotation
			JOINT LeftLeg
			{
				OFFSET 0.000000 -0.000004 23.425499
				CHANNELS 3 Xrotation Yrotation Zrotation
				JOINT LeftLegRoll
				{
					OFFSET 0.000000 -0.000004 23.719498
					CHANNELS 3 Xrotation Yrotation Zrotation
					JOINT LeftFoot
					{
						OFFSET 0.000000 -0.000003 19.344398
						CHANNELS 3 Xrotation Yrotation Zrotation
						JOINT LeftToeBase
						{
							OFFSET 0.000000 -0.000003 16.352600
							CHANNELS 3 Xrotation Yrotation Zrotation
							End Site
							{
								OFFSET -0.031063 0.912836 7.919434
							}
						}
					}
				}
			}
		}
	}
}
MOTION
Frames: 5
Frame Time: 0.041667
49.031200 0.659333 51.917503 -15.098540 0.244134 -0.885426 4.217655 -0.735159 0.017749 12.438131 -1.465044 0.096650 14.083491 -1.463789 0.114200 6.142658 7.117695 -0.452717 -5.068957 -2.421146 -1.043610 -6.807547 -57.772513 -7.942396 -62.701990 -135.679440 -33.225390 0.000003 -0.000001 0.000004 1.339489 4.532636 1.801996 -0.000000 0.000010 -3.006040 -5.000193 -7.998994 0.000117 -3.428743 62.013876 4.367780 -63.733875 124.138128 47.912957 0.000001 0.000007 -0.000001 7.192900 5.223787 0.438782 0.000003 0.000019 3.008280 -5.000242 7.998911 -0.000140 -78.720990 -163.578331 9.061066 -179.999991 0.000007 -1.691997 79.135753 4.011981 2.274868 -0.000003 0.000005 2.264321 72.875892 8.869949 -3.845941 25.465100 -7.346746 0.004392 -79.381258 161.970546 -7.656460 -0.000004 -0.000005 -1.551101 -104.759085 -5.758763 -5.388466 -0.000004 0.000004 -2.653009 73.393538 -7.581734 0.223025 27.718178 7.342488 -0.287413 
49.039700 0.674919 51.919102 -15.189839 0.241992 -0.892082 4.223182 -0.731304 0.012723 12.449293 -1.457764 0.086372 14.094649 -1.456627 0.103833 6.117795 7.132901 -0.445485 -5.007088 -2.454459 -1.036303 -6.781090 -57.772527 -7.910986 -62.671425 -135.714780 -33.186352 0.000003 -0.000001 0.000002 1.225578 4.552592 1.809259 0.000001 0.000008 -3.005999 -5.000191 -7.998995 0.000116 -3.522654 62.006411 4.475670 -63.670422 124.137486 47.832235 0.000002 0.000007 -0.000000 7.102468 5.216377 0.441694 0.000002 0.000020 3.008280 -5.000244 7.998911 -0.000140 -78.636979 -163.581487 9.059296 -179.999991 0.000005 -1.694005 79.139442 4.017955 2.283410 -0.000004 0.000004 2.262841 72.867600 8.870776 -3.846159 25.465100 -7.346746 0.004393 -79.290157 161.976106 -7.661900 -0.000005 -0.000004 -1.551621 -104.760362 -5.761295 -5.392849 -0.000004 0.000004 -2.651839 73.394863 -7.581011 0.220020 27.715250 7.342489 -0.287359 
49.044498 0.676595 51.911900 -15.280936 0.239929 -0.898322 4.228706 -0.727439 0.007679 12.460457 -1.450476 0.076057 14.105807 -1.449457 0.093430 6.094106 7.146192 -0.438274 -4.946771 -2.484753 -1.028886 -6.754539 -57.773749 -7.879551 -62.643702 -135.748890 -33.151716 0.000002 -0.000000 0.000005 1.115892 4.571456 1.816201 -0.000001 0.000009 -3.006001 -5.000191 -7.998995 0.000115 -3.616796 61.998877 4.583847 -63.607496 124.137418 47.752154 0.000000 0.000006 -0.000001 7.012746 5.208987 0.444581 0.000001 0.000021 3.008280 -5.000240 7.998911 -0.000140 -78.553084 -163.584752 9.057776 -179.999991 0.000004 -1.695001 79.143109 4.023924 2.291842 -0.000004 0.000005 2.261330 72.859124 8.871460 -3.846081 25.465100 -7.346749 0.004392 -79.199424 161.982130 -7.667439 -0.000005 -0.000005 -1.552140 -104.761366 -5.764008 -5.396259 -0.000004 0.000004 -2.650661 73.395649 -7.580294 0.216977 27.712518 7.342488 -0.287311 
49.044102 0.678842 51.905804 -15.371530 0.237954 -0.904080 4.234196 -0.723579 0.002625 12.471618 -1.443187 0.065720 14.116965 -1.442306 0.083009 6.072019 7.157133 -0.431065 -4.888366 -2.511265 -1.021324 -6.727986 -57.776167 -7.848243 -62.617064 -135.782726 -33.118856 0.000003 -0.000002 0.000001 1.010860 4.589199 1.822770 0.000001 0.000009 -3.006030 -5.000189 -7.998994 0.000115 -3.710675 61.991275 4.691719 -63.544952 124.137732 47.672292 0.000002 0.000007 -0.000001 6.923912 5.201520 0.447449 0.000003 0.000019 3.008280 -5.000241 7.998912 -0.000140 -78.469940 -163.587784 9.054675 -179.999991 0.000007 -1.695998 79.147173 4.029732 2.300051 -0.000003 0.000003 2.259800 72.850224 8.871989 -3.845595 25.465104 -7.346747 0.004393 -79.109580 161.988714 -7.672349 -0.000004 -0.000006 -1.552659 -104.761906 -5.766832 -5.398659 -0.000004 0.000004 -2.649461 73.395594 -7.579667 0.214164 27.710199 7.342486 -0.287267 
49.049297 0.698525 51.908703 -15.461735 0.236076 -0.909285 4.239614 -0.719737 -0.002430 12.482682 -1.435939 0.055381 14.127925 -1.435176 0.072580 6.051948 7.165276 -0.423837 -4.832203 -2.533226 -1.013583 -6.701538 -57.779876 -7.817161 -62.592304 -135.815730 -33.088889 0.000005 -0.000001 0.000002 0.910942 4.605789 1.828964 0.000000 0.000009 -3.006100 -5.000191 -7.998993 0.000115 -3.803756 61.983741 4.798692 -63.483794 124.137732 47.593892 0.000001 0.000008 -0.000000 6.836141 5.193877 0.450283 0.000004 0.000019 3.008280 -5.000238 7.998911 -0.000140 -78.386994 -163.590981 9.052028 -179.999991 0.000007 -1.697993 79.151545 4.035535 2.307954 -0.000003 0.000004 2.258241 72.840662 8.872324 -3.844387 25.465102 -7.346747 0.004392 -79.020610 161.995831 -7.676991 -0.000005 -0.000006 -1.553199 -104.762056 -5.769243 -5.401974 -0.000005 0.000004 -2.648231 73.394276 -7.579185 0.211746 27.708278 7.342487 -0.287228 
